# xmcd
#
# Track frame offsets:
#	150
#	14974
#	29984
#	46143
#	60413
#	75631
#	90731
#	105806
#	121623
#	137123
#
# Disc length: 2022 seconds
#
# Revision: 0
# Processed by: cddbd v1.5.2PL0 Copyright (c) Steve Scherf et al.
# Submitted via: EasyCDDAExtractor 16.0.6.1
#
DISCID=7b07e40a
DTITLE=Συλλογικός δίσκος - Ιστορία ρεμπέτικου και λαϊκού 06-2
DYEAR=2007
DGENRE=Ποικίλη
TTITLE0=Χασκίλ Στέλλα-Τσιτσάνης Βασίλης - Ακρογιαλιές δειλινά [Βασ. Τσιτσάνης]
TTITLE1=Παπαϊωάννου Γιάννης-Περπινιάδης Στ. - Είσαι γυναίκα του μπελά [Γ. Παπα
TTITLE1=ϊωάννου]
TTITLE2=Λαμπίρη Ελένη-Χιώτης Μανώλης - Εσένα μόνο αγαπώ [Μ. Χιώτης]
TTITLE3=Κηρομύτης Στέλιος-Μπέλλου Σ.-Περπινιάδης Στ. - Η σατράπισσα (Αραμπάς π
TTITLE3=ερνά)[Β. Τσιτσάνης-Κ. Μάνεσης]
TTITLE4=Χατζηχρήστος Απόστολος-Χατζηχρήστος Ευάγγ. - Ας μην ξημέρωνε ποτέ [Α. 
TTITLE4=Χατζηχρήστος-Κ. Μάνεσης]
TTITLE5=Χατζηχρήστος Απόστολος-Καλδάρας Απόστολος - Άνοιξε μάννα [Απ. Χατζηχρή
TTITLE5=στος]
TTITLE6=Σωφρονίου Έλλη-Περπινιάδης Στ.-Μητσάκης Γ. - Μού 'φαγες τα δαχτυλίδια 
TTITLE6=[Γ. Μητσάκης]
TTITLE7=Χασκίλ Στέλλα-Παγιουμτζής Στρ.-Χιώτης Μ. - Πάλι κι απόψε σκεφτικός [Απ
TTITLE7=Καλδάρας]
TTITLE8=Μπέλλου Σωτηρία-Μητσάκης Γιώργος - Το σβηστό φανάρι [Γ. Μητσάκης]
TTITLE9=Χατζηχρήστος Απόστολος-Καλφοπούλου Σούλα - Πάνε τα τραίνα κι έρχονται 
TTITLE9=[Α. Χατζηχρήστος-Κ. Μάνεσης]
EXTD=
EXTT0=
EXTT1=
EXTT2=
EXTT3=
EXTT4=
EXTT5=
EXTT6=
EXTT7=
EXTT8=
EXTT9=
PLAYORDER=
